<svg width="35" height="32" viewBox="0 0 35 32" fill="none" xmlns="http://www.w3.org/2000/svg">
<path d="M5.9871 0H28.4903V32H25.1871V17.3419H25.1547C24.7896 13.2908 21.3849 10.1161 17.2387 10.1161C13.0925 10.1161 9.68779 13.2908 9.32273 17.3419H9.29032V32H5.9871V0Z" fill="#959698"/>
<path d="M0 4.54194L1.34194 9.08387H2.47742V27.4581C1.90732 27.4581 1.44516 27.9202 1.44516 28.4903V29.729H1.23871C0.668609 29.729 0.206452 30.1912 0.206452 30.7613V32H11.7677V30.7613C11.7677 30.1912 11.3056 29.729 10.7355 29.729H10.529V28.4903C10.529 27.9202 10.0669 27.4581 9.49677 27.4581H8.25806V4.54194H0Z" fill="#959698"/>
<path d="M25.3935 27.4581C24.8234 27.4581 24.3613 27.9202 24.3613 28.4903V29.729H24.1548C23.5847 29.729 23.1226 30.1912 23.1226 30.7613V32H34.6839V30.7613C34.6839 30.1912 34.2217 29.729 33.6516 29.729H33.4452V28.4903C33.4452 27.9202 32.983 27.4581 32.4129 27.4581V9.08387H33.5484L34.8903 4.54194H26.6323V27.4581H25.3935Z" fill="#959698"/>
</svg>
