<svg width="33" height="32" viewBox="0 0 33 32" fill="none" xmlns="http://www.w3.org/2000/svg">
<g clip-path="url(#clip0_194_1669)">
<path d="M-0.159973 3.87141C-0.159973 2.80474 0.21336 1.92474 0.960027 1.23141C1.70669 0.538073 2.67736 0.191406 3.87203 0.191406C5.04536 0.191406 5.99469 0.53274 6.72003 1.21541C7.46669 1.91941 7.84003 2.83674 7.84003 3.96741C7.84003 4.99141 7.47736 5.84474 6.75203 6.52741C6.00536 7.23141 5.02403 7.58341 3.80803 7.58341H3.77603C2.60269 7.58341 1.65336 7.23141 0.928027 6.52741C0.202693 5.82341 -0.159973 4.93807 -0.159973 3.87141ZM0.256027 31.8714V10.4954H7.36003V31.8714H0.256027ZM11.296 31.8714H18.4V19.9354C18.4 19.1887 18.4854 18.6127 18.656 18.2074C18.9547 17.4821 19.408 16.8687 20.016 16.3674C20.624 15.8661 21.3867 15.6154 22.304 15.6154C24.6934 15.6154 25.888 17.2261 25.888 20.4474V31.8714H32.992V19.6154C32.992 16.4581 32.2454 14.0634 30.752 12.4314C29.2587 10.7994 27.2854 9.98341 24.832 9.98341C22.08 9.98341 19.936 11.1674 18.4 13.5354V13.5994H18.368L18.4 13.5354V10.4954H11.296C11.3387 11.1781 11.36 13.3007 11.36 16.8634C11.36 20.4261 11.3387 25.4287 11.296 31.8714Z" fill="#959698"/>
</g>
<defs>
<clipPath id="clip0_194_1669">
<rect width="33" height="32" fill="white"/>
</clipPath>
</defs>
</svg>
