<svg width="30" height="32" viewBox="0 0 30 32" fill="none" xmlns="http://www.w3.org/2000/svg">
<path d="M28.929 7.78627C28.1317 8.95293 27.1674 9.94693 26.036 10.7683C26.048 10.9349 26.054 11.1849 26.054 11.5183C26.054 13.0656 25.8277 14.6103 25.375 16.1523C24.9224 17.6943 24.2347 19.1736 23.312 20.5903C22.3894 22.0069 21.291 23.2599 20.017 24.3493C18.743 25.4386 17.2074 26.3076 15.41 26.9563C13.6127 27.6049 11.69 27.9293 9.64203 27.9293C6.41603 27.9293 3.4637 27.0663 0.785034 25.3403C1.2017 25.3876 1.66603 25.4113 2.17803 25.4113C4.8567 25.4113 7.2437 24.5899 9.33903 22.9473C8.08903 22.9233 6.97003 22.5393 5.98203 21.7953C4.99403 21.0513 4.31537 20.1019 3.94603 18.9473C4.3387 19.0066 4.7017 19.0363 5.03503 19.0363C5.54703 19.0363 6.05303 18.9709 6.55303 18.8403C5.2197 18.5663 4.11537 17.9026 3.24003 16.8493C2.3647 15.7959 1.92703 14.5726 1.92703 13.1793V13.1083C2.73637 13.5609 3.60537 13.8049 4.53403 13.8403C3.74803 13.3163 3.12303 12.6316 2.65903 11.7863C2.19503 10.9409 1.96303 10.0243 1.96303 9.03627C1.96303 7.98893 2.22503 7.0186 2.74903 6.12527C4.1897 7.89927 5.9427 9.31893 8.00803 10.3843C10.0734 11.4496 12.2847 12.0419 14.642 12.1613C14.5467 11.7086 14.499 11.2683 14.499 10.8403C14.499 9.24493 15.0617 7.88493 16.187 6.76027C17.3124 5.6356 18.6724 5.07293 20.267 5.07227C21.9337 5.07227 23.3384 5.67927 24.481 6.89327C25.7784 6.64327 26.9987 6.17893 28.142 5.50027C27.7014 6.8696 26.856 7.92927 25.606 8.67927C26.7134 8.55993 27.8204 8.26227 28.927 7.78627H28.929Z" fill="#959698"/>
</svg>
